<svg t="1669612952678" class="icon" viewBox="0 0 1040 1024" version="1.1" xmlns="http://www.w3.org/2000/svg"
    p-id="22129" width="200" height="200">
    <path
        d="M984.366479 473.445699L629.046018 378.687277 534.287596 23.366816a31.491665 31.491665 0 0 0-60.841897 0L378.687277 378.687277 23.366816 473.445699a31.491665 31.491665 0 0 0 0 60.841897L378.687277 629.046018l94.758422 355.320461a31.491665 31.491665 0 1 0 60.841897 0L629.046018 629.046018l355.320461-94.758422a31.491665 31.491665 0 1 0 0-60.841897z"
        fill="#ece1a6" p-id="22131" data-spm-anchor-id="a313x.7781069.0.i24" class=""></path>
    <path
        d="M254.641607 379.191144l98.31698-26.232557 26.201065-98.285488-193.563522-112.063092a31.491665 31.491665 0 0 0-43.017615 43.017615l112.063092 193.563522zM753.060196 379.159652l112.0316-193.53203a31.428682 31.428682 0 0 0-4.975683-38.01044 31.381445 31.381445 0 0 0-38.01044-5.007175l-193.563522 112.063092 26.232558 98.285488 98.285487 26.201065zM254.641607 628.573643L142.578515 822.137165a31.444428 31.444428 0 1 0 42.986124 43.017615l193.626505-112.094584-26.232557-98.285487-98.31698-26.201066zM753.028705 628.573643l-98.253996 26.201066-26.232558 98.316979 193.563522 112.063092a31.491665 31.491665 0 0 0 42.986123-43.049107L753.028705 628.573643z"
        fill="#ece1a6" p-id="22132" data-spm-anchor-id="a313x.7781069.0.i23" class=""></path>
    <path
        d="M503.866648 1007.733295a31.491665 31.491665 0 0 0 30.420948-23.366816L629.046018 629.046018 503.866648 503.866648v503.866647zM23.366816 534.287596L378.687277 629.046018 503.866648 503.866648H0a31.491665 31.491665 0 0 0 23.366816 30.420948zM473.445699 23.366816L378.687277 378.687277 503.866648 503.866648V0a31.491665 31.491665 0 0 0-30.420949 23.366816zM984.366479 473.445699L629.046018 378.687277 503.866648 503.866648h503.866647a31.491665 31.491665 0 0 0-23.366816-30.420949zM753.028705 628.573643l-98.253996 26.201066 205.372896 205.372896a31.491665 31.491665 0 0 0 4.944191-38.041932L753.028705 628.573643zM860.084622 147.58569a31.365699 31.365699 0 0 0-37.978949-4.975683l-193.563522 112.063092 26.232558 98.253996L860.084622 147.58569zM254.641607 379.191144l98.285488-26.232557L147.522707 147.648674a31.428682 31.428682 0 0 0-4.944192 37.978948l112.063092 193.563522zM147.58569 860.210588a31.428682 31.428682 0 0 0 37.978949 4.944192l193.626505-112.094584-26.232557-98.253996L147.58569 860.210588z"
        fill="#EACA44" p-id="22133"></path>
</svg>